<?xml version="1.0" encoding="UTF-8" standalone="no"?>
<svg width="200px" height="71px" viewBox="0 0 200 71" version="1.1" xmlns="http://www.w3.org/2000/svg" xmlns:xlink="http://www.w3.org/1999/xlink" xmlns:sketch="http://www.bohemiancoding.com/sketch/ns">
    <!-- Generator: Sketch 3.3.2 (12043) - http://www.bohemiancoding.com/sketch -->
    <title>grpc_white</title>
    <desc>Created with Sketch.</desc>
    <defs></defs>
    <g id="gRPC-Logo-White" stroke="none" stroke-width="1" fill="none" fill-rule="evenodd" sketch:type="MSPage">
        <path d="M74.5568298,30.7328844 L80.2059356,30.7328844 C81.9591151,30.7328844 83.3551445,30.4988846 84.3940657,30.030878 C85.4329869,29.5628715 86.228399,28.8920721 86.7803259,28.0184598 C87.3322528,27.1448476 87.7056095,26.0684486 87.9004073,24.7892306 C88.095205,23.5100127 88.1926024,22.0280141 88.1926024,20.3431905 C88.1926024,18.6583668 88.095205,17.1763682 87.9004073,15.8971503 C87.7056095,14.6179323 87.299787,13.5259334 86.6829276,12.6211207 C86.0660681,11.716308 85.2057244,11.0455086 84.1018706,10.6087025 C82.9980168,10.1718963 81.5370558,9.95349656 79.7189437,9.95349656 L74.5568298,9.95349656 L74.5568298,30.7328844 L74.5568298,30.7328844 Z M64.6221954,0.585499797 L80.5955291,0.585499797 C92.2833926,0.585499797 98.1272367,7.38373502 98.1272367,20.9804094 C98.1272367,25.0138726 97.4941536,28.4780451 96.2279684,31.3730308 C94.9617832,34.2680165 92.7378758,36.5937286 89.5561796,38.3502367 L100.270001,70.0648091 L89.7509764,70.0648091 L80.3410629,39.8845374 L74.5568298,39.8845374 L74.5568298,70.0648091 L64.6221954,70.0648091 L64.6221954,0.585499797 L64.6221954,0.585499797 Z M106.113904,0.585499797 L121.015855,0.585499797 C123.743023,0.585499797 126.145492,0.943301651 128.223335,1.65891609 C130.301177,2.37453053 132.184194,3.64310074 133.872441,5.46466478 C135.560688,7.28622881 136.729456,9.41677621 137.378782,11.8563709 C138.028108,14.2959656 138.352766,17.5975009 138.352766,21.7610758 C138.352766,24.8187011 138.107561,27.0074323 137.750432,29.1868036 C137.393303,31.3661748 136.240689,35.1574832 131.712098,37.7299541 C128.879699,39.3389018 124.81441,39.9177652 121.113253,39.9177652 L116.048538,39.9177652 L116.048538,70.0648091 L106.113904,70.0648091 L106.113904,0.585499797 L106.113904,0.585499797 Z M116.048538,30.7328844 L120.821058,30.7328844 C122.833968,30.7328844 124.392327,30.4752912 125.49618,29.9600972 C126.600034,29.4449032 127.411679,28.7436774 127.93114,27.8563989 C128.4506,26.9691203 128.759025,25.8958155 128.856424,24.6364524 C128.953823,23.3770893 129.002522,21.9746377 129.002522,20.4290557 C129.002522,18.9979612 128.953823,17.6384419 128.856424,16.3504569 C128.759025,15.0624718 128.466833,13.9462349 127.979839,13.0017125 C127.492845,12.0571902 126.729898,11.3130322 125.690977,10.7692163 C124.652056,10.2254004 123.158629,9.95349656 121.210652,9.95349656 L116.048538,9.95349656 L116.048538,30.7328844 L116.048538,30.7328844 Z M177.312116,54.5490645 C177.312116,56.6959078 176.906294,58.7451366 176.094637,60.6968123 C175.282979,62.6484881 174.162909,64.3561788 172.734393,65.8199356 C171.305876,67.2836924 169.633887,68.4546803 167.718376,69.3329344 C165.802865,70.2111884 163.741287,70.6503089 161.533579,70.6503089 C159.650535,70.6503089 157.735052,70.3900894 155.787075,69.8696425 C153.839098,69.3491956 152.085945,68.454691 150.527563,67.1861018 C148.969181,65.9175125 147.686782,64.2423493 146.680327,62.1605618 C145.673872,60.0787744 145.170652,57.4440516 145.170652,54.2563146 L145.170652,16.0036611 C145.170652,13.7267061 145.560242,11.6124224 146.339433,9.66074666 C147.118624,7.70907091 148.222461,6.01764396 149.650978,4.58641508 C151.079494,3.1551862 152.783949,2.03298947 154.764392,1.21979124 C156.744836,0.406593016 158.936277,0 161.338783,0 C163.611423,0 165.7217,0.406593016 167.669677,1.21979124 C169.617654,2.03298947 171.305876,3.17144992 172.734393,4.63520673 C174.162909,6.09896354 175.282979,7.85544537 176.094637,9.90470491 C176.906294,11.9539644 177.312116,14.1820942 177.312116,16.5891609 L177.312116,20.4924929 L167.377482,20.4924929 L167.377482,17.1746607 C167.377482,15.222985 166.825563,13.531558 165.72171,12.1003291 C164.617856,10.6691003 163.124429,9.95349656 161.241384,9.95349656 C158.773946,9.95349656 157.134423,10.7178914 156.322766,12.2467041 C155.511109,13.7755168 155.105287,15.7108995 155.105287,18.0529104 L155.105287,53.5732315 C155.105287,55.5899631 155.543575,57.28139 156.420165,58.647563 C157.296754,60.0137361 158.871346,60.6968123 161.143986,60.6968123 C161.793312,60.6968123 162.491326,60.5829663 163.238051,60.3552708 C163.984776,60.1275753 164.666557,59.7535097 165.283417,59.2330628 C165.900276,58.712616 166.403496,57.9970123 166.793092,57.0862303 C167.182687,56.1754482 167.377482,55.0369878 167.377482,53.6708148 L167.377482,50.2553993 L177.312116,50.2553993 L177.312116,54.5490645 L177.312116,54.5490645 Z M196.776788,35.2368293 C196.776788,32.7005885 194.726397,30.6445592 192.197112,30.6445592 L167.386463,30.6445586 L167.386463,39.8290988 L187.617436,39.8290993 L187.617436,50.0733941 L184.499558,50.0733941 L192.249779,61.024192 L200,50.0733941 L196.776788,50.0733941 L196.776788,35.2368293 L196.776788,35.2368293 Z M22.5460971,39.9174245 L22.5460971,53.6708148 C22.5460971,56.5332725 23.0330841,59.0216218 24.0070727,61.1359372 C24.9810613,63.2502526 26.2634605,65.0067344 27.8543086,66.4054354 C29.4451567,67.8041363 31.2307757,68.8612782 33.2112192,69.5768926 C35.1916628,70.292507 37.1883095,70.6503089 39.2012193,70.6503089 C41.2141292,70.6503089 43.2107759,70.292507 45.1912195,69.5768926 C47.171663,68.8612782 48.957282,67.8041363 50.5481301,66.4054354 C52.1389782,65.0067344 53.4213773,63.2502526 54.395366,61.1359372 C55.3693546,59.0216218 55.8563416,56.5332725 55.8563416,53.6708148 L55.8563416,30.752401 L38.054989,30.7252519 L38.0324391,39.9150501 L45.9217076,39.9150501 L45.9217073,53.6708148 C45.9217073,56.0778815 45.2561584,57.8506271 43.9250406,58.9891046 C42.5939228,60.1275821 41.0193315,60.6968123 39.2012193,60.6968123 C37.3831072,60.6968123 35.8085159,60.1275821 34.4773981,58.9891046 C33.1462803,57.8506271 32.4807314,56.0778815 32.4807314,53.6708148 L32.4807314,16.9794941 C32.4807314,14.5724274 33.1462803,12.7996818 34.4773981,11.6612043 C35.8085159,10.5227268 37.3831072,9.95349656 39.2012193,9.95349656 C41.0193315,9.95349656 42.5939228,10.5227268 43.9250406,11.6612043 C45.2561584,12.7996818 45.9217073,14.5724274 45.9217073,16.9794941 L45.9217073,20.4924929 L55.8563416,20.4924929 L55.8563416,16.9794941 C55.8563416,14.1820922 55.3693546,11.7100067 54.395366,9.56316336 C53.4213773,7.41632003 52.1389782,5.64357449 50.5481301,4.24487353 C48.957282,2.84617258 47.171663,1.78903074 45.1912195,1.0734163 C43.2107759,0.357801854 41.2141292,0 39.2012193,0 C37.1883095,0 35.1916628,0.357801854 33.2112192,1.0734163 C31.2307757,1.78903074 29.4451567,2.84617258 27.8543086,4.24487353 C26.2634605,5.64357449 24.9810613,7.41632003 24.0070727,9.56316336 C23.0330841,11.7100067 22.5460971,14.1820922 22.5460971,16.9794941 L22.5460971,30.7328844 L12.3825641,30.7328844 L12.3825641,20.4885896 L15.5004417,20.4885896 L7.75022087,9.5377917 L0,20.4885896 L3.22321221,20.4885896 L3.22321221,35.3251544 C3.22321221,37.8613952 5.27360298,39.9174245 7.80288817,39.9174245 L22.5460971,39.9174245 L22.5460971,39.9174245 L22.5460971,39.9174245 Z" id="grpc_white" fill="#FFFFFF" sketch:type="MSShapeGroup"></path>
    </g>
</svg>